#N canvas 77 50 1200 677 12;
#X floatatom 68 97 5 0 0 0 - - -;
#X floatatom 95 248 5 0 0 0 - - -;
#X obj 179 352 output~;
#X obj 68 159 osc~ 400;
#X obj 68 275 *~;
#X floatatom 189 247 5 0 0 0 - - -;
#X obj 157 158 osc~ 400;
#X obj 157 274 *~;
#X obj 197 316 *~ 0.25;
#X obj 157 89 *;
#X floatatom 155 19 5 0 0 0 - - -;
#X obj 379 600;
#X floatatom 278 248 5 0 0 0 - - -;
#X obj 251 157 osc~ 400;
#X obj 251 273 *~;
#X obj 251 88 *;
#X floatatom 249 18 5 0 0 0 - - -;
#X obj 249 55 t b f;
#X floatatom 372 244 5 0 0 0 - - -;
#X obj 342 155 osc~ 400;
#X obj 342 271 *~;
#X obj 342 86 *;
#X floatatom 340 16 5 0 0 0 - - -;
#X obj 340 53 t b f;
#X floatatom 251 123 5 0 0 0 - - -;
#X floatatom 343 122 5 0 0 0 - - -;
#X floatatom 157 122 5 0 0 0 - - -;
#X floatatom 67 19 5 0 0 0 - - -;
#X obj 288 618;
#X floatatom 593 89 5 0 0 0 - - -;
#X floatatom 687 88 5 0 0 0 - - -;
#X floatatom 778 86 5 0 0 0 - - -;
#X floatatom 505 90 5 0 0 0 - - -;
#X text 74 -28 F0;
#X text 148 -31 H 2 mul;
#X text 244 -29 H 3 mul;
#X text 336 -30 H 4 mul;
#X text 93 203 F0 amp;
#X text 188 202 H 2 amp;
#X text 277 202 H 3 amp;
#X text 367 202 H 4 amp;
#X text 505 63 F0;
#X text 587 62 H 2 f;
#X text 684 60 H 3 f;
#X text 774 59 H 4 f;
#X obj 506 140 *;
#X obj 591 139 *;
#X obj 684 138 *;
#X obj 781 133 *;
#X obj 555 286 /;
#X obj 561 194 expr $f1 + $f2 + $f3 + $f4;
#X obj 637 276 expr $f1 + $f2 + $f3 + $f4;
#X floatatom 665 366 5 0 0 0 - - -;
#X text 664 331 SPECTRAL CENTROID (hZ);
#X obj 234 613;
#X obj 479 221 t b b b;
#X obj -301 113 * 2;
#X obj -249 111 * 3;
#X obj -193 109 * 4;
#X obj -299 243 -;
#X obj -303 509 *;
#X obj -245 245 -;
#X obj -249 511 *;
#X obj -185 244 -;
#X obj -189 510 *;
#X floatatom 118 465 5 0 0 0 - - -;
#X obj 156 58 t b f;
#X obj -306 166 t f b;
#X obj -190 168 t f b;
#X obj -252 168 t f b;
#X obj -288 336 t f b;
#X obj -224 334 t f b;
#X obj -166 336 t f b;
#X obj -248 547 t f b;
#X obj -187 544 t f b;
#X obj -299 290 abs;
#X obj -249 286 abs;
#X obj -186 284 abs;
#X obj -157 380 pow 2;
#X obj -232 381 pow 2;
#X obj -285 376 pow 2;
#X obj -277 670 /;
#X obj -304 627 expr $f1 + $f2 + $f3;
#X obj -84 543 expr $f1 + $f2 + $f3;
#X obj -68 254 t b;
#X obj -73 75 t b;
#X obj -82 472 t f b;
#X obj -14 468 t f b;
#X obj -285 438 t f b;
#X obj -231 434 t f b;
#X obj -162 434 t f b;
#X obj -85 658 *;
#X obj 339 622;
#X text 108 436 (IN)HARMONICITY;
#X obj 95 225 nbx 5 14 -1e+37 1e+37 0 0 empty empty empty 0 -8 0 10
-262144 -1 -1 1 256;
#X obj 189 225 nbx 5 14 -1e+37 1e+37 0 0 empty empty empty 0 -8 0 10
-262144 -1 -1 0.9 256;
#X obj 279 223 nbx 5 14 -1e+37 1e+37 0 0 empty empty empty 0 -8 0 10
-262144 -1 -1 0.8 256;
#X obj 364 222 nbx 5 14 -1e+37 1e+37 0 0 empty empty empty 0 -8 0 10
-262144 -1 -1 0.7 256;
#X obj 68 -6 nbx 5 14 -1e+37 1e+37 0 0 empty empty empty 0 -8 0 10
-262144 -1 -1 400 256;
#X obj 162 -6 nbx 5 14 -1e+37 1e+37 0 0 empty empty empty 0 -8 0 10
-262144 -1 -1 2 256;
#X obj 252 -8 nbx 5 14 -1e+37 1e+37 0 0 empty empty empty 0 -8 0 10
-262144 -1 -1 2.92 256;
#X obj 337 -9 nbx 5 14 -1e+37 1e+37 0 0 empty empty empty 0 -8 0 10
-262144 -1 -1 4.1 256;
#X obj -10 608 expr 2 / $f1;
#X text -297 7 Calculating (in)harmonicity (weighted divergence from
the spectral peaks and the harmonic model);
#X text 505 -26 Calculating spectral centroid (ratio of the sum of
the magnitudes multiplied by the corresponding frequencies divided
by the sum of the magnitudes and it is also possible to use the square
of the magnitudes);
#X msg 746 671 start;
#X msg 753 699 stop;
#X text 790 673 start streaming audio;
#X text 792 699 stop streaming audio;
#X obj 738 792 writesf~ 2;
#X obj 651 580 bng 15 250 50 0 empty empty empty 17 7 0 10 -262144
-1 -1;
#X obj 364 651;
#X obj 295 651;
#X obj 295 640;
#X text 835 592;
#X text 917 618;
#X text 856 786;
#X msg 738 643 open -bytes 4 P.wav;
#X obj 651 621 del 3000;
#X text 629 551 Start recording (3 secs);
#X msg 329 679;
#X text 771 608;
#X text 667 394 ESSENTIA Docs \; https://essentia.upf.edu/reference/std_SpectralCentroidTime.html
Calculation reference \; https://picture.iczhiku.com/resource/eetop/sykfGloQfYJRZBcv.pdf
p. 364/365;
#X text 113 494 ESSENTIA Docs \; https://essentia.upf.edu/reference/std_Inharmonicity.html
Calculation reference \; http://recherche.ircam.fr/anasyn/peeters/ARTICLES/Peeters_2003_cuidadoaudiofeatures.pdf
p. 17;
#X connect 0 0 3 0;
#X connect 0 0 9 0;
#X connect 0 0 15 0;
#X connect 0 0 21 0;
#X connect 0 0 32 0;
#X connect 1 0 4 1;
#X connect 1 0 45 1;
#X connect 1 0 51 0;
#X connect 3 0 4 0;
#X connect 4 0 8 0;
#X connect 5 0 7 1;
#X connect 5 0 46 1;
#X connect 5 0 51 1;
#X connect 5 0 70 0;
#X connect 6 0 7 0;
#X connect 7 0 8 0;
#X connect 8 0 2 0;
#X connect 8 0 2 1;
#X connect 8 0 109 0;
#X connect 8 0 109 1;
#X connect 9 0 26 0;
#X connect 10 0 66 0;
#X connect 10 0 85 0;
#X connect 12 0 14 1;
#X connect 12 0 47 1;
#X connect 12 0 51 2;
#X connect 12 0 71 0;
#X connect 13 0 14 0;
#X connect 14 0 8 0;
#X connect 15 0 24 0;
#X connect 16 0 17 0;
#X connect 16 0 85 0;
#X connect 17 0 0 0;
#X connect 17 0 96 0;
#X connect 17 1 15 1;
#X connect 18 0 20 1;
#X connect 18 0 51 3;
#X connect 18 0 48 1;
#X connect 18 0 72 0;
#X connect 19 0 20 0;
#X connect 20 0 8 0;
#X connect 21 0 25 0;
#X connect 22 0 23 0;
#X connect 22 0 85 0;
#X connect 23 0 0 0;
#X connect 23 0 97 0;
#X connect 23 1 21 1;
#X connect 24 0 13 0;
#X connect 24 0 30 0;
#X connect 24 0 61 0;
#X connect 25 0 19 0;
#X connect 25 0 31 0;
#X connect 25 0 63 0;
#X connect 26 0 6 0;
#X connect 26 0 29 0;
#X connect 26 0 59 0;
#X connect 27 0 0 0;
#X connect 27 0 56 0;
#X connect 27 0 57 0;
#X connect 27 0 58 0;
#X connect 27 0 84 0;
#X connect 27 0 102 0;
#X connect 29 0 46 0;
#X connect 30 0 47 0;
#X connect 31 0 48 0;
#X connect 32 0 45 0;
#X connect 45 0 50 0;
#X connect 45 0 55 0;
#X connect 46 0 50 1;
#X connect 46 0 55 0;
#X connect 47 0 50 2;
#X connect 47 0 55 0;
#X connect 48 0 50 3;
#X connect 49 0 52 0;
#X connect 50 0 49 0;
#X connect 51 0 49 1;
#X connect 55 0 50 0;
#X connect 55 1 51 0;
#X connect 55 2 49 0;
#X connect 56 0 67 0;
#X connect 57 0 69 0;
#X connect 58 0 68 0;
#X connect 59 0 75 0;
#X connect 60 0 82 0;
#X connect 61 0 76 0;
#X connect 62 0 73 0;
#X connect 63 0 77 0;
#X connect 64 0 74 0;
#X connect 66 0 0 0;
#X connect 66 0 95 0;
#X connect 66 1 9 1;
#X connect 67 0 59 1;
#X connect 67 1 59 0;
#X connect 68 0 63 1;
#X connect 68 1 63 0;
#X connect 69 0 61 1;
#X connect 69 1 61 0;
#X connect 70 0 80 0;
#X connect 70 1 60 0;
#X connect 71 0 79 0;
#X connect 71 1 62 0;
#X connect 72 0 78 0;
#X connect 72 1 64 0;
#X connect 73 0 82 1;
#X connect 73 1 82 0;
#X connect 74 0 82 2;
#X connect 74 1 82 0;
#X connect 75 0 60 0;
#X connect 76 0 62 0;
#X connect 77 0 64 0;
#X connect 78 0 87 0;
#X connect 78 0 90 0;
#X connect 79 0 86 0;
#X connect 79 0 89 0;
#X connect 80 0 83 0;
#X connect 80 0 88 0;
#X connect 81 0 91 0;
#X connect 82 0 81 0;
#X connect 83 0 81 1;
#X connect 84 0 80 0;
#X connect 84 0 79 0;
#X connect 84 0 78 0;
#X connect 84 0 83 0;
#X connect 85 0 56 0;
#X connect 85 0 57 0;
#X connect 85 0 58 0;
#X connect 86 0 83 1;
#X connect 86 1 83 0;
#X connect 87 0 83 2;
#X connect 87 1 83 0;
#X connect 88 0 60 1;
#X connect 88 1 60 0;
#X connect 89 0 62 1;
#X connect 89 1 62 0;
#X connect 90 0 64 1;
#X connect 90 1 64 0;
#X connect 91 0 65 0;
#X connect 94 0 1 0;
#X connect 95 0 5 0;
#X connect 96 0 12 0;
#X connect 97 0 18 0;
#X connect 98 0 27 0;
#X connect 99 0 10 0;
#X connect 100 0 16 0;
#X connect 101 0 22 0;
#X connect 102 0 91 1;
#X connect 105 0 109 0;
#X connect 106 0 109 0;
#X connect 110 0 105 0;
#X connect 110 0 118 0;
#X connect 117 0 109 0;
#X connect 118 0 106 0;
